<svg width="460" height="85" viewBox="0 0 460 85" fill="none" xmlns="http://www.w3.org/2000/svg">
<g clip-path="url(#clip0_1_2)">
<path d="M244.263 86.1158H210.642L176.871 48.7514V86.1158H150.904V-0.11972H176.871V35.4131L208.54 -0.11972H240.51L200.886 40.6923L244.263 86.1158Z" fill="white"/>
<path d="M307.317 31.7936L341.254 -0.175323H364.309V86.1158H337.946V32.2364L309.255 59.2921H305.507L276.842 32.2364V86.1158H250.478V-0.175323H273.431L307.317 31.7936Z" fill="white"/>
<path d="M460.768 -0.00572205L414.861 67.5228H455.797V86.1158H372.464L418.516 18.5872H380.212V-0.00572205H460.768Z" fill="white"/>
<path d="M52.1674 86.1893L105.14 -0.0246124L139.008 -0.0117124L87.2822 86.1893H52.1674Z" fill="#E20713"/>
<path d="M0.168243 86.1893L53.1408 -0.0246124L87.0088 -0.0117124L35.2831 86.1893H0.168243Z" fill="#E20713"/>
</g>
<defs>
<clipPath id="clip0_1_2">
<rect width="460" height="85" fill="white"/>
</clipPath>
</defs>
</svg>
